<svg width="20" height="20" viewBox="0 0 20 20" fill="none" xmlns="http://www.w3.org/2000/svg">
<path d="M10 0C4.47715 0 0 4.47715 0 10C0 15.5228 4.47715 20 10 20C15.5228 20 20 15.5228 20 10C19.9936 4.47982 15.5202 0.00642897 10 0Z" fill="white"/>
<path d="M15.7727 6.83337L10.0685 14.5742C9.93246 14.7547 9.7296 14.873 9.50552 14.9024C9.28143 14.9319 9.0549 14.8701 8.87683 14.7309L4.8035 11.4742C4.44405 11.1866 4.38585 10.662 4.6735 10.3025C4.96115 9.94309 5.48572 9.88489 5.84516 10.1725L9.24183 12.89L14.431 5.84754C14.6012 5.5922 14.8979 5.45103 15.2033 5.48007C15.5088 5.50912 15.7736 5.70368 15.8926 5.98652C16.0116 6.26935 15.9655 6.59469 15.7727 6.83337Z" fill="#143C5B"/>
</svg>
